<?xml version="1.0" standalone="no"?>
<!DOCTYPE svg PUBLIC "-//W3C//DTD SVG 20010904//EN"
 "http://www.w3.org/TR/2001/REC-SVG-20010904/DTD/svg10.dtd">
<svg version="1.0" xmlns="http://www.w3.org/2000/svg"
 width="1128.000000pt" height="406.000000pt" viewBox="0 0 1128.000000 406.000000"
 preserveAspectRatio="xMidYMid meet">

<g transform="translate(0.000000,406.000000) scale(0.100000,-0.100000)"
fill="#000000" stroke="none">
<path d="M1785 4029 c-226 -34 -484 -117 -655 -208 -8 -4 -43 -22 -77 -40 -34
-18 -67 -39 -74 -47 -6 -8 -15 -14 -20 -14 -13 0 -100 -62 -209 -148 -128
-102 -350 -330 -350 -360 0 -5 -7 -16 -16 -23 -34 -28 -104 -144 -181 -299
-53 -107 -57 -120 -57 -187 -1 -70 -2 -73 -37 -105 -28 -26 -39 -46 -48 -88
-26 -128 -39 -207 -38 -230 0 -14 -3 -41 -8 -60 -4 -19 -8 -117 -7 -217 1
-242 36 -439 118 -653 55 -142 187 -384 257 -471 15 -19 31 -38 35 -44 93
-125 230 -263 367 -367 6 -4 24 -18 40 -31 107 -83 305 -195 460 -260 146 -61
355 -117 535 -143 292 -43 719 -8 944 77 27 11 55 19 62 19 7 0 28 6 46 14 18
8 58 24 88 36 91 38 271 130 333 171 32 22 61 39 63 39 3 0 10 4 17 10 7 5 50
40 97 77 112 87 292 269 366 368 92 124 103 142 168 271 107 211 143 303 124
317 -10 6 -10 10 -1 13 13 6 57 141 68 209 4 22 9 47 12 55 3 8 7 35 9 60 2
25 8 91 13 147 12 129 3 299 -15 314 -8 6 -14 19 -14 28 0 9 -7 26 -15 38 -13
19 -13 21 5 26 17 4 19 11 14 58 -3 30 -14 83 -24 119 -10 36 -21 77 -24 93
-5 21 -12 27 -34 27 -15 0 -39 -8 -52 -17 -13 -9 -40 -18 -60 -19 -81 -6 -100
-12 -134 -42 -19 -17 -53 -34 -73 -38 -21 -4 -42 -10 -48 -14 -5 -4 -25 -12
-43 -18 -28 -9 -37 -9 -49 3 -10 11 -19 12 -33 5 -23 -12 -97 -13 -104 -1 -3
5 -26 12 -51 15 -45 7 -63 26 -24 26 12 0 19 5 16 13 -2 6 -10 11 -17 9 -7 -1
-17 4 -24 11 -7 10 -41 17 -101 20 -102 7 -157 24 -153 47 4 25 -81 98 -157
134 -90 43 -103 47 -110 36 -8 -13 -43 10 -48 31 -5 18 70 95 452 462 84 81
148 147 142 147 -7 0 -112 -58 -234 -129 -123 -71 -246 -141 -275 -156 -29
-15 -55 -31 -58 -36 -3 -5 -11 -9 -17 -9 -7 0 24 34 68 75 l80 74 -456 1
c-509 0 -475 -5 -500 71 -7 19 -25 53 -41 76 -15 23 -28 48 -28 55 0 7 -10 22
-21 32 -17 14 -19 20 -9 26 7 4 16 28 21 51 4 24 10 61 14 82 6 30 5 37 -9 37
-9 0 -16 7 -16 15 0 20 38 87 60 105 27 22 70 90 70 110 0 10 9 29 21 44 11
14 18 30 15 35 -4 5 -2 21 4 35 l10 26 -123 -1 c-67 -1 -176 -10 -242 -20z
m1995 -2129 c0 -5 -4 -10 -10 -10 -5 0 -10 5 -10 10 0 6 5 10 10 10 6 0 10 -4
10 -10z m246 -217 c-10 -10 -19 5 -10 18 6 11 8 11 12 0 2 -7 1 -15 -2 -18z"/>
<path d="M4682 3011 c-23 -4 -47 -12 -53 -18 -14 -14 -13 -183 2 -473 11 -206
8 -604 -9 -1038 -4 -96 -4 -182 0 -192 4 -11 20 -23 35 -27 15 -4 307 -8 648
-8 597 0 624 1 736 22 302 57 486 150 662 332 150 156 217 302 225 498 6 141
-13 232 -75 354 -99 198 -267 351 -478 434 -98 39 -268 80 -415 101 -105 14
-215 18 -680 20 -305 1 -574 -1 -598 -5z m998 -45 c618 -14 979 -187 1144
-548 46 -100 61 -167 60 -273 -1 -121 -17 -193 -69 -300 -106 -220 -334 -403
-600 -480 -203 -59 -224 -60 -912 -60 -347 0 -634 3 -638 6 -3 4 0 119 7 255
17 318 17 786 0 1122 -7 145 -10 267 -7 270 15 15 515 19 1015 8z"/>
<path d="M5480 2639 c-107 -7 -148 -17 -167 -40 -14 -19 -24 -499 -15 -739 l7
-185 40 -20 c36 -18 60 -20 240 -20 226 0 276 9 405 72 241 117 342 391 232
626 -34 73 -98 142 -183 197 -139 90 -315 124 -559 109z m330 -64 c166 -37
311 -140 372 -263 31 -62 33 -74 33 -167 0 -165 -54 -271 -182 -359 -91 -62
-189 -94 -332 -108 -125 -12 -323 0 -345 22 -16 16 -16 854 1 871 31 31 318
34 453 4z"/>
<path d="M9180 3009 c-17 -4 -34 -10 -38 -14 -12 -11 -1 -328 11 -351 7 -12
91 -90 187 -174 203 -177 360 -326 360 -343 0 -15 -124 -132 -365 -344 -109
-96 -182 -168 -186 -183 -13 -48 -10 -295 4 -314 15 -21 150 -35 342 -35 190
-1 159 -19 417 237 l228 226 192 -190 c106 -104 214 -206 240 -227 l46 -38
214 -6 c324 -9 329 -6 329 184 1 194 19 164 -240 397 -124 112 -248 227 -275
254 -44 46 -48 53 -35 68 8 10 104 96 214 193 110 97 228 204 263 239 l62 63
0 169 c0 157 -1 170 -19 180 -12 6 -113 10 -259 10 l-239 0 -39 -30 c-22 -17
-125 -118 -231 -225 -105 -107 -197 -195 -204 -195 -6 0 -112 99 -235 220
-123 121 -234 222 -246 225 -35 8 -463 11 -498 4z m588 -141 c56 -51 121 -114
143 -140 21 -26 84 -88 139 -138 92 -83 102 -90 123 -79 12 6 124 112 248 235
l226 224 211 0 c116 0 217 -3 226 -6 14 -5 16 -28 16 -153 l0 -148 -77 -74
c-43 -41 -150 -138 -238 -214 -201 -176 -245 -218 -245 -236 0 -18 123 -137
360 -348 107 -96 199 -181 205 -190 5 -9 10 -76 10 -149 0 -107 -3 -135 -15
-142 -8 -5 -114 -10 -236 -10 -212 0 -223 1 -250 22 -16 12 -124 115 -240 230
-121 119 -219 208 -229 208 -11 0 -115 -95 -245 -224 -144 -144 -236 -227
-254 -232 -33 -8 -443 0 -452 9 -4 4 -7 65 -8 136 -1 115 1 132 19 154 11 14
115 108 230 210 240 210 315 286 315 318 0 29 -121 149 -367 363 l-193 167 0
102 c0 56 -3 125 -6 153 l-6 51 243 -3 244 -3 103 -93z"/>
<path d="M7166 2991 c-12 -14 -12 -42 0 -201 24 -323 29 -786 10 -1025 -8
-115 -19 -267 -22 -336 -10 -186 -53 -169 429 -170 215 0 590 -4 832 -8 360
-7 445 -6 467 5 31 16 56 85 88 241 25 126 26 186 3 209 -16 15 -36 16 -243 8
-480 -19 -744 -10 -800 26 -21 13 -28 179 -9 191 20 12 456 11 684 -2 137 -8
198 -8 213 0 17 9 21 25 27 107 4 53 15 147 25 208 17 104 17 112 1 128 -15
17 -44 17 -446 9 -237 -5 -443 -7 -458 -4 -44 9 -58 40 -55 119 l3 68 40 10
c36 8 467 -2 842 -21 l122 -6 12 25 c9 20 7 61 -11 194 -12 93 -28 181 -36
195 -7 14 -26 31 -41 37 -19 7 -288 10 -845 10 -736 -1 -819 -3 -832 -17z
m1672 -44 c11 -13 34 -149 48 -281 l7 -69 -169 8 c-275 12 -705 21 -762 15
-80 -9 -97 -31 -97 -130 0 -85 16 -122 66 -147 27 -14 546 -17 769 -4 69 4
128 5 131 2 4 -4 -2 -58 -12 -121 -10 -63 -18 -146 -18 -183 l-1 -69 -167 6
c-623 21 -720 19 -756 -17 -17 -17 -19 -29 -15 -111 3 -50 11 -102 17 -115 7
-12 34 -33 59 -44 45 -21 60 -22 382 -22 184 0 400 2 480 4 l145 5 -3 -50 c-5
-68 -47 -266 -65 -300 l-15 -28 -763 2 c-420 2 -795 5 -833 9 l-69 6 7 151 c3
83 12 203 18 266 23 216 12 938 -18 1183 l-6 47 815 0 c662 0 817 -2 825 -13z"/>
</g>
</svg>
